<?xml version="1.0" encoding="utf-8"?>
<!-- Generator: Adobe Illustrator 18.0.0, SVG Export Plug-In . SVG Version: 6.00 Build 0)  -->
<!DOCTYPE svg PUBLIC "-//W3C//DTD SVG 1.1//EN" "http://www.w3.org/Graphics/SVG/1.1/DTD/svg11.dtd">
<svg version="1.1" xmlns="http://www.w3.org/2000/svg" xmlns:xlink="http://www.w3.org/1999/xlink" x="0px" y="0px"
	 viewBox="0 21.3 120 77.5" enable-background="new 0 21.3 120 77.5" xml:space="preserve">
<g id="Layer_1">
	<path fill="#333333" d="M112.9,89.9h1.5l1.3,4l1.3-4h1.5l-2,5.4l-0.4,0.9c-0.1,0.4-0.2,0.6-0.4,0.7c-0.1,0.1-0.2,0.4-0.4,0.5
		c-0.1,0.1-0.4,0.2-0.6,0.2c-0.2,0.1-0.5,0.1-0.7,0.1c-0.2,0-0.6,0-0.8-0.1l-0.1-1.2c0.2,0,0.5,0.1,0.6,0.1c0.4,0,0.6-0.1,0.8-0.4
		c0.1-0.2,0.2-0.5,0.4-0.8L112.9,89.9z M112.1,95.4h-1.5v-2.8c0-0.6,0-0.9-0.1-1.2c-0.1-0.1-0.1-0.4-0.4-0.5
		c-0.1-0.1-0.4-0.1-0.5-0.1c-0.2,0-0.5,0.1-0.7,0.2s-0.4,0.4-0.5,0.6c-0.1,0.2-0.1,0.7-0.1,1.3v2.6h-1.5v-5.7h1.4v0.8
		c0.5-0.6,1.1-0.9,1.9-0.9c0.4,0,0.6,0.1,0.9,0.1c0.2,0.1,0.5,0.2,0.6,0.5c0.1,0.2,0.2,0.4,0.2,0.6c0,0.2,0.1,0.6,0.1,0.9v3.6H112.1
		z M104,92.8c-0.2,0.1-0.5,0.1-0.9,0.2c-0.5,0.1-0.7,0.1-0.8,0.2c-0.2,0.1-0.2,0.4-0.2,0.5c0,0.2,0.1,0.4,0.2,0.6
		c0.1,0.1,0.4,0.2,0.6,0.2s0.5-0.1,0.8-0.2c0.2-0.1,0.4-0.4,0.4-0.5c0-0.1,0-0.4,0-0.7V92.8z M102,91.5l-1.3-0.2
		c0.1-0.6,0.5-0.9,0.8-1.2c0.4-0.2,0.9-0.4,1.7-0.4c0.7,0,1.2,0.1,1.5,0.2s0.6,0.4,0.7,0.6c0.1,0.2,0.2,0.7,0.2,1.3v1.8
		c0,0.5,0,0.8,0.1,1.1c0,0.2,0.1,0.5,0.2,0.7h-1.8c0-0.1-0.1-0.2-0.1-0.5c0-0.1,0-0.1,0-0.1c-0.2,0.2-0.5,0.5-0.8,0.6
		c-0.2,0.1-0.6,0.2-0.9,0.2c-0.6,0-1.1-0.1-1.4-0.5c-0.4-0.4-0.5-0.7-0.5-1.2c0-0.4,0.1-0.6,0.2-0.8c0.1-0.2,0.4-0.5,0.6-0.6
		c0.2-0.1,0.7-0.2,1.2-0.4c0.7-0.1,1.2-0.2,1.4-0.4v-0.1c0-0.2-0.1-0.5-0.2-0.6c-0.1-0.1-0.4-0.2-0.8-0.2c-0.2,0-0.5,0-0.6,0.1
		C102.1,91.2,102,91.3,102,91.5z M95.6,92.6c0,0.6,0.1,1.1,0.4,1.4c0.2,0.4,0.6,0.5,0.9,0.5s0.6-0.1,0.8-0.5
		c0.2-0.2,0.4-0.7,0.4-1.4c0-0.6-0.1-1.1-0.4-1.3c-0.2-0.2-0.6-0.5-0.8-0.5c-0.4,0-0.7,0.1-0.9,0.5C95.7,91.6,95.6,92,95.6,92.6z
		 M94.1,89.9h1.4v0.8c0.2-0.2,0.5-0.5,0.7-0.7c0.4-0.1,0.7-0.2,1.1-0.2c0.7,0,1.2,0.2,1.7,0.8c0.5,0.5,0.7,1.2,0.7,2.1
		c0,0.9-0.2,1.7-0.7,2.3c-0.5,0.5-1.1,0.8-1.7,0.8c-0.4,0-0.6-0.1-0.8-0.2s-0.5-0.4-0.8-0.6v2.8h-1.5V89.9z M84.3,89.9h1.4v0.7
		c0.5-0.6,1.1-0.9,1.8-0.9c0.4,0,0.7,0.1,0.9,0.2c0.2,0.1,0.5,0.4,0.7,0.7c0.2-0.4,0.5-0.5,0.8-0.7c0.2-0.1,0.6-0.2,0.9-0.2
		c0.5,0,0.7,0.1,1.1,0.2c0.2,0.1,0.5,0.5,0.6,0.7c0.1,0.2,0.1,0.6,0.1,1.2v3.6h-1.5v-3.2c0-0.6,0-0.9-0.1-1.1
		c-0.1-0.2-0.4-0.4-0.6-0.4s-0.4,0.1-0.6,0.2s-0.4,0.4-0.4,0.6c-0.1,0.2-0.1,0.6-0.1,1.2v2.7h-1.5v-3.1c0-0.6,0-0.9-0.1-1.1
		c0-0.1-0.1-0.2-0.2-0.4c-0.1-0.1-0.2-0.1-0.5-0.1c-0.2,0-0.5,0.1-0.6,0.2c-0.2,0.1-0.4,0.4-0.4,0.6C86,91.9,86,92.2,86,92.8v2.7
		h-1.5v-5.7H84.3z M78.9,92.7c0,0.6,0.1,0.9,0.4,1.3c0.2,0.4,0.6,0.5,0.9,0.5s0.7-0.1,0.9-0.5c0.2-0.4,0.4-0.7,0.4-1.3
		c0-0.6-0.1-0.9-0.4-1.3c-0.2-0.4-0.6-0.5-0.9-0.5s-0.7,0.1-0.9,0.5C79,91.6,78.9,92.1,78.9,92.7z M77.4,92.6c0-0.5,0.1-0.9,0.4-1.4
		c0.2-0.5,0.6-0.8,1.1-1.1s0.9-0.4,1.5-0.4c0.8,0,1.5,0.2,2.1,0.8s0.8,1.3,0.8,2.1c0,0.8-0.2,1.5-0.8,2.1s-1.3,0.8-2.1,0.8
		c-0.5,0-1.1-0.1-1.5-0.4s-0.8-0.6-1.1-1.1C77.5,93.8,77.4,93.2,77.4,92.6z M74.9,92.6l1.5,0.5c-0.2,0.8-0.6,1.4-1.2,1.9
		c-0.6,0.4-1.2,0.6-2.1,0.6c-1.1,0-1.9-0.4-2.6-1.1c-0.7-0.7-0.9-1.7-0.9-2.8c0-1.3,0.4-2.3,1.1-3c0.7-0.7,1.5-1.1,2.6-1.1
		c0.9,0,1.8,0.2,2.4,0.8c0.4,0.4,0.6,0.8,0.8,1.4l-1.5,0.4c-0.1-0.4-0.2-0.7-0.6-0.9c-0.2-0.2-0.6-0.4-1.1-0.4
		c-0.6,0-1.1,0.2-1.4,0.6s-0.6,1.1-0.6,2c0,0.9,0.1,1.7,0.6,2.1c0.4,0.5,0.8,0.6,1.4,0.6c0.5,0,0.8-0.1,1.1-0.4
		C74.5,93.6,74.7,93.2,74.9,92.6z M63.8,92.8c-0.2,0.1-0.5,0.1-0.9,0.2c-0.5,0.1-0.7,0.1-0.8,0.2c-0.2,0.1-0.2,0.4-0.2,0.5
		c0,0.2,0.1,0.4,0.2,0.6c0.1,0.1,0.4,0.2,0.6,0.2s0.5-0.1,0.8-0.2c0.2-0.1,0.4-0.4,0.4-0.5c0-0.1,0-0.4,0-0.7V92.8z M61.8,91.5
		l-1.3-0.2c0.1-0.6,0.5-0.9,0.8-1.2c0.4-0.2,0.9-0.4,1.7-0.4c0.7,0,1.2,0.1,1.5,0.2c0.4,0.1,0.6,0.4,0.7,0.6
		c0.1,0.2,0.2,0.7,0.2,1.3v1.8c0,0.5,0,0.8,0.1,1.1c0,0.2,0.1,0.5,0.2,0.7h-1.5c0-0.1-0.1-0.2-0.1-0.5c0-0.1,0-0.1,0-0.1
		c-0.2,0.2-0.5,0.5-0.8,0.6c-0.2,0.1-0.6,0.2-0.9,0.2c-0.6,0-1.1-0.1-1.4-0.5c-0.4-0.4-0.5-0.7-0.5-1.2c0-0.4,0.1-0.6,0.2-0.8
		c0.1-0.2,0.4-0.5,0.6-0.6c0.2-0.1,0.7-0.2,1.2-0.4c0.7-0.1,1.2-0.2,1.4-0.4v-0.1c0-0.2-0.1-0.5-0.2-0.6c-0.1-0.1-0.4-0.2-0.8-0.2
		c-0.2,0-0.5,0-0.6,0.1C62.1,91.2,62,91.3,61.8,91.5z M59.2,95.4h-1.5v-2.8c0-0.6,0-0.9-0.1-1.2c-0.1-0.1-0.1-0.4-0.4-0.5
		c-0.1-0.1-0.4-0.1-0.5-0.1c-0.2,0-0.5,0.1-0.7,0.2c-0.2,0.1-0.4,0.4-0.5,0.6c-0.1,0.2-0.1,0.7-0.1,1.3v2.6h-1.5v-5.7h1.4v0.8
		c0.5-0.6,1.1-0.9,1.9-0.9c0.4,0,0.6,0.1,0.9,0.1c0.2,0.1,0.5,0.2,0.6,0.5c0.1,0.2,0.2,0.4,0.2,0.6c0,0.2,0.1,0.6,0.1,0.9v3.6H59.2z
		 M53,89.9V91h-1.1v2.3c0,0.5,0,0.7,0,0.8s0.1,0.1,0.1,0.2c0.1,0,0.1,0.1,0.2,0.1c0.1,0,0.4,0,0.6-0.1l0.1,1.2
		c-0.4,0.1-0.7,0.2-1.2,0.2c-0.2,0-0.5,0-0.7-0.1c-0.2-0.1-0.4-0.2-0.5-0.4c-0.1-0.1-0.1-0.4-0.2-0.6c0-0.1,0-0.5,0-1.1v-2.5h-0.6
		V90h0.7v-1.1l1.5-0.8v2H53V89.9z M47.5,92.8c-0.2,0.1-0.5,0.1-0.9,0.2c-0.5,0.1-0.7,0.1-0.8,0.2c-0.2,0.1-0.2,0.4-0.2,0.5
		c0,0.2,0.1,0.4,0.2,0.6c0.1,0.1,0.4,0.2,0.6,0.2c0.2,0,0.5-0.1,0.8-0.2c0.2-0.1,0.4-0.4,0.4-0.5c0-0.1,0-0.4,0-0.7V92.8z
		 M45.5,91.5l-1.3-0.2c0.1-0.6,0.5-0.9,0.8-1.2c0.4-0.2,0.9-0.4,1.7-0.4c0.7,0,1.2,0.1,1.5,0.2c0.4,0.1,0.6,0.4,0.7,0.6
		c0.1,0.2,0.2,0.7,0.2,1.3v1.8c0,0.5,0,0.8,0.1,1.1c0,0.2,0.1,0.5,0.2,0.7H48c0-0.1-0.1-0.2-0.1-0.5c0-0.1,0-0.1,0-0.1
		c-0.2,0.2-0.5,0.5-0.8,0.6c-0.2,0.1-0.6,0.2-0.9,0.2c-0.6,0-1.1-0.1-1.4-0.5c-0.4-0.4-0.5-0.7-0.5-1.2c0-0.4,0.1-0.6,0.2-0.8
		c0.1-0.2,0.4-0.5,0.6-0.6c0.2-0.1,0.7-0.2,1.2-0.4c0.7-0.1,1.2-0.2,1.4-0.4v-0.1c0-0.2-0.1-0.5-0.2-0.6c-0.1-0.1-0.4-0.2-0.8-0.2
		c-0.2,0-0.5,0-0.6,0.1C45.6,91.2,45.5,91.3,45.5,91.5z M41.5,95.4h-1.5v-5.7h1.4v0.8c0.2-0.4,0.5-0.6,0.6-0.7
		c0.2-0.1,0.5-0.1,0.7-0.1c0.4,0,0.7,0.1,0.9,0.2l-0.5,1.3c-0.2-0.1-0.5-0.2-0.7-0.2c-0.2,0-0.4,0-0.6,0.1c-0.1,0.1-0.2,0.4-0.4,0.6
		c0.1,0.4,0,1.1,0,2V95.4z M37.1,92.8c-0.2,0.1-0.5,0.1-0.9,0.2c-0.5,0.1-0.7,0.1-0.8,0.2c-0.2,0.1-0.2,0.4-0.2,0.5
		c0,0.2,0.1,0.4,0.2,0.6c0.1,0.1,0.4,0.2,0.6,0.2c0.2,0,0.5-0.1,0.8-0.2c0.2-0.1,0.4-0.4,0.4-0.5c0-0.1,0-0.4,0-0.7V92.8z
		 M35.1,91.5l-1.3-0.2c0.1-0.6,0.5-0.9,0.8-1.2c0.4-0.2,0.9-0.4,1.7-0.4s1.2,0.1,1.5,0.2c0.4,0.1,0.6,0.4,0.7,0.6
		c0.1,0.2,0.2,0.7,0.2,1.3v1.8c0,0.5,0,0.8,0.1,1.1c0,0.2,0.1,0.5,0.2,0.7h-1.5c0-0.1-0.1-0.2-0.1-0.5c0-0.1,0-0.1,0-0.1
		c-0.2,0.2-0.5,0.5-0.8,0.6c-0.2,0.1-0.6,0.2-0.9,0.2c-0.6,0-1.1-0.1-1.4-0.5c-0.4-0.4-0.5-0.7-0.5-1.2c0-0.4,0.1-0.6,0.2-0.8
		c0.1-0.2,0.4-0.5,0.6-0.6c0.2-0.1,0.7-0.2,1.2-0.4c0.7-0.1,1.2-0.2,1.4-0.4v-0.1c0-0.2-0.1-0.5-0.2-0.6c-0.1-0.1-0.4-0.2-0.8-0.2
		c-0.2,0-0.5,0-0.6,0.1C35.3,91.2,35.2,91.3,35.1,91.5z M28.8,87.7v2.8c0.5-0.6,1.1-0.8,1.8-0.8c0.4,0,0.7,0.1,0.9,0.2
		c0.2,0.1,0.5,0.2,0.6,0.5c0.1,0.2,0.2,0.5,0.2,0.7c0,0.2,0.1,0.6,0.1,1.1v3.3h-1.5v-3c0-0.6,0-0.9-0.1-1.1c0-0.1-0.1-0.2-0.4-0.4
		C30.3,91,30.1,91,29.9,91c-0.2,0-0.5,0.1-0.7,0.2s-0.4,0.4-0.5,0.6c-0.1,0.2-0.1,0.6-0.1,1.1v2.8h-1.3V88h1.5V87.7z M24.3,92.8
		c-0.2,0.1-0.5,0.1-0.9,0.2c-0.5,0.1-0.7,0.1-0.8,0.2c-0.2,0.1-0.2,0.4-0.2,0.5c0,0.2,0.1,0.4,0.2,0.6c0.1,0.1,0.4,0.2,0.6,0.2
		c0.2,0,0.5-0.1,0.8-0.2c0.2-0.1,0.4-0.4,0.4-0.5c0-0.1,0-0.4,0-0.7V92.8z M22.4,91.5l-1.3-0.2c0.1-0.6,0.5-0.9,0.8-1.2
		c0.4-0.2,0.9-0.4,1.7-0.4s1.2,0.1,1.5,0.2s0.6,0.4,0.7,0.6c0.1,0.2,0.2,0.7,0.2,1.3v1.8c0,0.5,0,0.8,0.1,1.1c0,0.2,0.1,0.5,0.2,0.7
		h-1.5c0-0.1-0.1-0.2-0.1-0.5c0-0.1,0-0.1,0-0.1c-0.2,0.2-0.5,0.5-0.8,0.6c-0.2,0.1-0.6,0.2-0.9,0.2c-0.6,0-1.1-0.1-1.4-0.5
		c-0.4-0.4-0.5-0.7-0.5-1.2c0-0.4,0.1-0.6,0.2-0.8c0.1-0.2,0.4-0.5,0.6-0.6c0.2-0.1,0.7-0.2,1.2-0.4c0.7-0.1,1.2-0.2,1.4-0.4v-0.1
		c0-0.2-0.1-0.5-0.2-0.6c-0.1-0.1-0.4-0.2-0.8-0.2c-0.2,0-0.5,0-0.6,0.1C22.5,91.2,22.4,91.3,22.4,91.5z M12.1,95.4v-7.8h2.4
		l1.4,5.3l1.4-5.3h2.4v7.8h-1.4v-6.2l-1.7,6.2H15l-1.5-6.2v6.2H12.1z M5.7,92.3l-1.1-2.8l-1.1,2.8H5.7z M8.6,95.4H6.9l-0.7-1.8H3.1
		l-0.6,1.8H0.8l3.1-7.8h1.7L8.6,95.4z"/>
</g>
<g id="Layer_2">
	<g>
		<path fill-rule="evenodd" clip-rule="evenodd" fill="#0067AC" d="M12.6,26.9h95c5.3,0,7.5,2.2,7.5,7.1v36.5c0,4.8-2.5,7.1-7.5,7.1
			h-95c-6.5,0-7.5-2.6-7.5-7.1V34C5.1,29.4,6.8,26.9,12.6,26.9z M54,37.3l0.3-0.8c0.1-0.2,0.3-0.2,0.6-0.2h1.4
			c0.2,0,0.5,0.4,0.5,0.4v0.6H54z M61.7,37.3L62,34c0-0.9-1.2-2.4-2.4-2.4c-2.6-0.2-5.1-0.3-7.3,0c-1.1,0.1-2.3,0.2-2.7,1.3
			l-1.3,4.3h-3l-0.8,3.6h5.4l-0.4,2c-5.9,0-8.6,3.1-8.2,6.1c0.5,3.7,5.1,5.1,11,4.5l0.9-4.6h-4.7c-1.5,0-1-1.5-0.1-1.8l5.2-0.1
			l1.4-6.2H56l-2.6,12.5l5-0.1l2.3-12.4h1.6l0.8-3.6H61.7z M76.5,37.3l0.3-0.8c0.1-0.2,0.3-0.2,0.6-0.2h1.4c0.2,0,0.5,0.4,0.5,0.4
			l-0.1,0.6H76.5z M100.2,37.3l0.3-0.8c0.1-0.2,0.3-0.2,0.6-0.2h1.4c0.2,0,0.5,0.4,0.5,0.4l-0.1,0.6H100.2z M71.2,45.1
			c-1.4,0.6-2.4,0.1-2-1l0.6-3.3H72L71.2,45.1z M64.4,40.9c-0.6,2.9-1.8,6.8-0.9,8.3c0.8,1.3,2.4,1.4,4.1,1.1
			c0.9-0.1,1.7-0.5,2.8-1.1l-0.9,4.3l5-0.1l2.7-12.4h1.2l-2.6,12.5l4.8-0.1l2.7-12.4h0.9l0.8-3.6h-0.9l0.3-3.3
			c0-0.9-1.2-2.4-2.4-2.4c-3-0.1-5.3-0.1-7.3,0c-1.1,0-2.3,0.2-2.7,1.3l-1.3,4.3h-6.7l-0.8,3.6H64.4z M94.4,47.7h-4.7l0,0.1l2.5,2.1
			l-2.6,3.2l-7.4-4.6l1.4-2.7c2.9-1,3.9-3.2,2.3-5h-0.4l0.8-3.6h8.1l1.3-4.3c0.4-1.1,1.5-1.3,2.7-1.3c2.1-0.1,4.6-0.1,7.3,0
			c1.1,0,2.4,1.5,2.4,2.4l-0.3,3.3h1l-0.8,3.6h-0.9l-2.7,12.4l-4.8,0.1l2.6-12.5h-1.2l-2.7,12.4l-5,0.1L94.4,47.7z M91.3,43.8h3.9
			l0.6-3h-3.2L91.3,43.8z M43.1,56.6h17.2l-1.2,5.6h-5.9l-2.6,11.1H45l2-11.1h-5.1L43.1,56.6z M67.5,62l-0.6,2.3h3.4
			c0.8,0,1-0.3,1.1-0.3c0.4,0,0.9-0.6,0.9-1c0-0.6-0.6-0.9-2-0.9H67.5z M62.2,56.6h9.9c2.7,0,6.6,2.6,6.6,5.5c0,4.9-2.6,7.5-7.2,7.5
			h-6l-0.9,3.8h-5.9L62.2,56.6z M21.4,56.6h7l4.6,9.1l1.8-9.1h6.3l-4,16.8h-7.1l-4.5-8l-1.4,8h-6.4L21.4,56.6z M101.4,66.7
			c-0.9,3.6-5.3,6.5-10.5,6.5c-6,0-10.8-3.8-10.8-8.3c0-4.5,4.8-8.3,10.8-8.3c5.3,0,9.8,3,10.6,6.9l-7.3,0.1c-0.5-1-1.8-1.8-3.4-1.8
			c-2.1,0-3.8,1.4-3.8,3.1c0,1.7,1.7,3.1,3.8,3.1c1.1,0,2.2-0.4,2.9-1.1L101.4,66.7z M12.4,40.9l-1.6,9l8.9,5l2.3-3.7l-5.2-3.9
			l1.3-6.5h2.5c0.3,2.9-0.4,4.9-1.9,6.4l2.7,1.9c2.4-1.4,4.1-4,4.9-8.4h10.1l-0.7,2.9l-9,0.1l-0.8,3.9c0.8,1.4,1.6,2.6,3.2,3
			c0.7,0.2,1.9-0.4,2.6-1.6c0.2-0.4,0.4-1,0.5-1.4h2.4l-1.5,5.7h5.3l3.2-12.5h1.5l0.8-3.6H12.4l-0.8,3.6H12.4z M9.2,22.4h101
			c5.1,0,9.2,4.3,9.2,9.1V73c0,4.8-4.3,9.1-9.2,9.1H9.2C4.3,82,0,78,0,73V31.5C0,26.5,4.2,22.4,9.2,22.4z"/>
	</g>
</g>
</svg>
